<svg viewBox="0 0 100 100" xmlns="http://www.w3.org/2000/svg"><path fill="#B9BFBE" stroke="#B9BFBE" d="m45.5 0 .5 2-14 4-3 12q-2.7 1.1-2-1.5l2-2 1-7L33.5 4l12-4ZM76.5 3 90 9.5l.5 1.5 1-2 .5 1.5-1 5h1l.5-1.5.5 2.5q-1.5 3-3 0 .9-6.9-3.5-8.5l-10-4V3Z" opacity=".949"/><path fill="#B9BFBE" stroke="#B9BFBE" d="M53.5 5q4-.5 4.5 2.5v5q-2.2 6.8-7.5 10.5l-3 2-9 1-4.5-2q-2.6-2.3-2-8.5L36.5 9l6-1-3.5 4.5q-1.5 8 3.5 9.5l5 1 5.5-4.5 1-4L50.5 9 44 7.5 53.5 5ZM65.5 6l15 4 6.5 4.5 1 8-2.5 3.5q-2.7 2.8-9 2-7.2-1.8-10.5-7.5l-3-7v-5L65.5 6ZM75 9l-4 1q-5 2-4 10 2 5 11 4l4-6-1-4-6-5ZM19.5 63l1.5 4.5-1 2 1.5 1.5 9 2 1.5-.5-.5 2.5-6.5-2 1 6.5q-.7 2.3-4.5 1.5h-2l-2-1-3.5 2.5q1.1 3.3-1.5 2.5-1.2 2.3-2.5-.5l2-6.5h2v-5q-3.3 1.3-2-3.5l3.5-4.5 4-2ZM17 77l1 2q1-3-1-2ZM46 72l2 .5v2q1 3.8-2 2.5v-5ZM51.5 73q2.2 3.3 7.5 3.5l-2.5.5q-4.6-.7-5-4ZM63.5 81l8.5.5v2l1 5q-2.2 1.3-1 6 2.3 1.3-.5 2.5l-4 1h-2q-7 1.5-6.5-1.5L55.5 99q-8.9 1.3-12.5-1 1.4-3.7-4.5-2l-2-1q-1.9 3.6-6.5 3-1.1-2.7 1.5-2l-1-2q-4.4-1.5-3.5 1.5l.5 1.5q-3.7 1.3-2.5-2.5l-1.5.5q-3.7 3.3-12 2L9 93.5l2.5-3.5 3-1q3 3 9 3 1.3-2.2 6-1l1.5.5 1-4q-1.2-2.8-2.5-.5-3.7 1.3-2.5-2.5l1-2.5 3.5 2 1-2 3 5 5-1v2l4 1 2.5-1.5-2 3 3.5 1.5 1.5-1.5-1.5-2.5 8 2 3.5-2.5 3.5-6.5Zm3.5 7q-3 2 0 3l3-1-3-2Zm-33 2v1h2l-2-1Zm18 0 2 4h2l-1-3-3-1Zm-16 2v1h2l-2-1Zm23 2v2l2 1q1-4-2-3Zm-10 1q-1 3 2 2 1-3-2-2Z" opacity=".949"/><path fill="#B9BFBE" stroke="#B9BFBE" d="m50.5 82 6.5 2.5-2.5.5-4-2v-1Z" opacity=".949"/><path fill="#8C5815" stroke="#8C5815" d="m59.5 18 3.5 4.5v7h-1V26h-6.5L54 30l8 1.5-3 1 1 4h-1q.8-4.7-2.5-5.5l-4 2 .5-1.5-1-4 7.5-9.5ZM41 38l9 1q1.7 4.1-2.5 3L42 40l-.5 5-.5-7ZM37 41q3.3-1.3 2 3.5h-1L37 41ZM58.5 41l6.5 2.5-1.5.5-2-1-3 2v-4ZM39.5 46l-.5 1.5-.5 2.5-.5-2.5 1.5-1.5ZM51.5 57l-1 2-1.5-.5 2.5-1.5ZM46.5 58l-.5 1.5-1.5 3.5-.5-1.5 2.5-3.5ZM48.5 60l-.5 1.5-.5 1.5-.5-1.5 1.5-1.5ZM46.5 64l.5 3.5h-1l.5-3.5ZM43.5 65l.5 4.5q-1.5 3-3 0h2l.5-4.5ZM38.5 66l1.5 2.5-2-1 .5-1.5Z" opacity=".965"/><path fill="#898B8A" stroke="#898B8A" d="m39.5 3 2.5.5-2.5.5V3ZM55.5 4q4.8 1.2 3.5 8.5-2.6 7.4-8.5 11.5l-2 1 1-2 5.5-4.5 3-6v-5L55.5 4ZM50.5 5l2.5.5-2.5.5V5ZM65.5 5l2.5.5-5 3 1 7h-1l-1-7L65.5 5ZM79.5 5 83 6.5l-1.5.5-2-2ZM45.5 6l2.5.5-2.5.5V6ZM40.5 7 49 8.5 42.5 10V8q-3 .5-2-1ZM75.5 8l1.5.5-2.5 1.5 1-2ZM86.5 8l2 3-2-3ZM35.5 9l-2 3 2-3ZM50.5 9l1 2-1-2ZM78.5 9l1.5.5-2 1 3 4h-1L77.5 11l-1.5-.5L78.5 9ZM70.5 10l1.5.5-3.5 2.5 2-3ZM81.5 10l5.5 3.5-2.5-1.5q-3.8-.3-3-2ZM30.5 11l.5 2.5h-1l.5-2.5ZM40.5 11l-.5 1.5-.5 1.5-.5-1.5 1.5-1.5ZM89.5 12q-.5 5.1 2.5 6.5l-2 .5-.5-2q.5 7.5-4 10-2.3 2.7-8 2v-1q7.3.8 9.5-3.5L89.5 12ZM32.5 13l.5 1.5-1 5 2 4.5 4 1.5-1.5.5-3.5-2.5q-2.7-2.3-2-8l1.5-2.5Z" opacity=".984"/><path fill="#898B8A" stroke="#898B8A" d="m53.5 14 .5 2.5h-1l.5-2.5ZM29.5 15l.5 2.5-2 1 1.5-3.5ZM39.5 17l3.5 4.5-4-3 .5-1.5ZM80.5 19l.5 1.5-4.5 3.5v-1l3.5-2.5.5-1.5ZM66.5 21l4 5-4-5ZM44.5 22l3.5.5-3.5.5v-1ZM44.5 25l2.5.5-2.5.5v-1ZM39.5 26l2.5.5-2.5.5v-1ZM72.5 26l3.5 1.5-1.5.5-2-2ZM40.5 48l5.5 2v3h-7l1.5-5ZM49.5 48l5.5 1.5-3.5.5-2-2ZM69.5 48q3.8-1 2.5 2h3.5l1.5 4-2 .5V61h-3l-1-7-2 .5 1 5q-.7 2.3-4.5 1.5l.5-1.5-.5-4.5-2 3q-2.6.8-1.5-2.5-2.7-1.1-2-4.5l-3-.5 10.5-.5 2-2ZM34 60q5.6-2.2 4 3.5L37 69l4 2.5 1 4.5 2.5 1q-.6-4.6 2-6l-.5 1.5q1 4.5-1.5 5.5l-5-1q-1.2 3.7-5.5 3v-2q2.7 1.1 2-1.5l.5-1.5-3 1-2-4-3 1v-1q3.3 1.1 2.5-1.5l4-1.5-1-9ZM20.5 64l.5 2.5h-1l.5-2.5ZM20.5 68l.5 2 2 .5-1.5.5-1-3ZM48.5 71l2.5 1 1.5 3 1.5-.5-1.5 1.5-3.5-2.5-.5 1.5v-4ZM56.5 75l-1 2-1.5-.5 2.5-1.5ZM59.5 76l3 1 1.5-.5q-1.2 2.8-6.5 1.5v-1l2-1ZM48.5 80l2.5 1.5-1.5.5-1-2ZM63.5 80l6.5.5-7.5 1.5 1-2ZM52.5 82l-1 2 1-2ZM54.5 83l1.5.5-2.5 1.5 1-2ZM61.5 83l-.5 1.5-.5 1.5-3.5-1.5 4.5-1.5ZM33.5 84l2 3-2-3ZM59.5 87l-1 2 1-2ZM47.5 88q4.5 2 1 4L45 90.5q-.7-2.2 1.5-1.5l1-1ZM66.5 88l3.5 1.5-3.5 1.5q-3-1.5 0-3ZM53.5 89l3.5.5-3.5.5v-1ZM33.5 90l2.5.5-2.5.5v-1ZM59 94q3-1.2 2 2.5l-2-1V94Z" opacity=".984"/><path fill="#3F3A36" stroke="#3F3A36" d="M83.5 8 86 9.5 84.5 9l-1-1ZM43 9l3 1.5 1 4-1 2.5-3.5 1-1.5-.5 2 3-3-2 .5-3.5 2 1q3.3-1.2 2.5-5-3 1-2-2ZM71.5 11l2.5 1 1 4.5q-1.3 3.2-6 3l2.5 3.5q-4.2-.7-3.5-6.5l2.5 1.5 2.5-2.5V13q-3.2 1-1.5-2Z" opacity=".973"/><path fill="#3F3A36" stroke="#3F3A36" d="m60.5 12 7 13q4.5 5 14 5l7-4-3 4q-3.5 2.5-11 1L63 26v-3.5L59.5 18l-7 9h-4q-2.2 3.8-9 3l-5-1-4.5-4.5.5-1.5q3.5 5.5 13 5 7.6-1.4 11.5-6.5l5.5-9.5Zm.5 2-2 2q-1 2 2 1v-3Z" opacity=".973"/><path fill="#3F3A36" stroke="#3F3A36" d="m52.5 14 .5 2.5h-1l.5-2.5ZM79.5 20l-1 2 1-2ZM44.5 21l3.5.5-3.5.5v-1ZM38 37q5.5-1.1 8 1.5l-1.5.5-3.5-1-.5 7-1.5-4-2-.5 1-3.5ZM59.5 41l7.5 1 1 6.5h-1L65 43l-5.5-1v-1ZM30 50l3 .5-1 2q4 2 0 4L34 68l-3 1.5-1.5 2.5-7.5-2.5 2.5-1.5q1.3 2.3 6 1 2.5-1 1.5-5.5l-1-1q1.3-8.9-1-12.5ZM24.5 51l.5 1.5-2.5 4.5-.5-1.5 2.5-4.5ZM55.5 52q4.4-1.5 3.5 1.5l2 3h-1l-.5-1.5-.5 2-5.5-1-3 2-2-1-1.5.5 8.5-5.5ZM21.5 61l.5 2.5h-1l.5-2.5ZM67 62h6.5l.5 1.5-3 6 .5 1.5-3 1-.5-1.5v-2L67 62ZM45.5 68l.5 2.5h-1l.5-2.5ZM43.5 70l-.5 1.5 1 3-2-1 1.5-3.5ZM66.5 73l3.5.5-3.5.5v-1ZM51.5 75l1 2-1-2ZM66.5 75l6.5 2.5-1.5 2.5q-8 1-12.5-1.5l3.5-.5 1.5.5 2.5-3.5ZM34.5 81l6.5 2.5-1.5.5-4-1-1-2ZM34.5 84l1 2-1-2Z" opacity=".973"/><path fill="#323030" stroke="#323030" d="m44.5 3 1.5.5L41.5 5V4l3-1ZM74.5 4 79 6.5l-1.5.5-3-3ZM29.5 23l5 6 7.5 2.5-2.5.5q-7.4-1.1-10.5-6.5l.5-2.5ZM89 25l2 .5-4.5 5.5-6.5 3q-1.2-3 2.5-2l6.5-5.5V25ZM50.5 29q2.3-.7 1.5 1.5L50.5 29ZM61.5 32l-1 2 1-2ZM71 32l4.5 1 2.5-1q1.3 3.7-4.5 2l-1.5-.5q.8 2.6-2.5 1.5v-1q2.6.7 1.5-2ZM38.5 35l7 1 1.5 1.5-.5 1.5Q44 35.8 38 37l-1.5 5-.5-3.5 2.5-3.5ZM60 38l3 .5-.5 1.5 5.5 1 1 5.5h-1L67 42l-8-1.5 1-2.5ZM26.5 48l6.5 1.5-4.5.5-2-1q-4.2 2.9-4.5 9l-2-.5 4.5-8.5 2-1ZM20.5 61l.5 2-2-.5 1.5-1.5ZM74.5 63l.5 7.5-.5 2.5-1.5-3.5q-1.2-5.2 1.5-6.5ZM73.5 77l.5 2.5-2 1 1.5-3.5ZM41.5 83l.5 1.5-2 1 1.5-2.5Z" opacity=".29"/><path fill="#6B635C" stroke="#6B635C" d="m46.5 0 .5 3 12-2 1.5 3q1.7-2.8 7-2L74 4l.5-2 .5 1.5-.5 2.5-10-3L60 6.5 57.5 3l-13 2V4l1.5-.5v-2l.5-1.5ZM39.5 5l2.5.5-2.5.5V5ZM32.5 7l.5 1.5-1.5 2.5-.5-1.5L32.5 7ZM92.5 17l.5 3.5-1 4.5q-2.7 1.1-2-1.5l2.5-6.5ZM27.5 18q2.5 1 1.5 5.5h-1l-.5-5.5ZM50.5 37l.5 2-4-.5 3.5-1.5ZM59.5 37l.5 2.5-2 1 1.5-3.5ZM33.5 45l.5 1.5-1.5 2.5-.5-2.5 1.5-1.5ZM69.5 46l3.5 1v2h5v6.5l-1 2 1 4.5-3.5 1 1.5-2.5 1-9Q75.8 49 72 50q1.3-3.3-3.5-2l1-2ZM20.5 58l.5 2.5-2 1 1.5-3.5ZM73.5 70l1.5 3.5-1.5 3.5-.5-4.5.5-2.5ZM31.5 75l2.5 5.5-2 1v-2l-.5-4.5ZM46.5 77l1.5 2.5q-2.5 1.5-1 7l.5 1.5q-2.6-1.4-2-6L42 84l4.5-7Z" opacity=".208"/><path fill="#E78927" stroke="#E78927" d="M55.5 26H62v5l-8-1 1.5-4ZM56.5 31q3.8 1.3 2.5 7.5-2.3 1.3-1 6l1.5-.5 3-1 2.5 1 1 6-4.5-1-3 1-9-2-7.5-3.5q-2.1-5.9 2.5-4.5l5.5 2 1-4.5q-2.5-1.5 1-3-.7-2.2 1.5-1.5l3-2ZM35.5 42l2.5 1 1 3.5-1 3v2l1.5 2.5 7.5 1q.6 4.6-3 6.5L42.5 70 39 67.5 38 59l-4-.5 1-2-1-3v-2q.8-6.1-1-8.5l2.5-1ZM52.5 57l3.5.5-3 4.5-3 1.5-1 7.5q-4.1 1.7-3-2.5l3-9.5 3.5-2Z" opacity=".965"/><path fill="#DA5B58" stroke="#DA5B58" d="m39.5 47 .5 2.5h-1l.5-2.5ZM55.5 49l2.5.5-2.5.5v-1ZM38.5 51l1.5 2.5-2-1 .5-1.5ZM48.5 52l1 2q-2.8.7-1-2ZM56.5 57q5.8.3 8.5 3.5 3.7 2.8 3 10L64.5 76l-2 1-8-2-5.5-3 1-8.5 1.5-1.5q2.3.8 1.5-1.5l3.5-3.5ZM34.5 59l3.5.5-3.5.5v-1ZM47 81l6.5 4H60l-2.5 4q-7.6 1.1-10.5-2.5V81Z" opacity=".992"/><path fill="#D3D5D5" stroke="#D3D5D5" d="m39.5 0 5.5.5L33.5 4 30 7.5l-1 7-1.5 1.5-.5-6.5L30.5 4l5-3h2l2-1ZM75 1l7.5 3h2L92 8.5 91 11l2 .5-1 3-.5 1.5q.2-5.7-3-8l-10-5H75V1ZM15.5 63l3.5.5-5.5 3.5.5-1.5 1.5-2.5ZM12.5 73H14v5q-2.7-1.1-2 1.5l-2 5q1.3 2.8 2.5.5 2.6.8 1.5-2.5l3.5-2.5 2 1h2q3.8.8 4.5-1.5L25 73l6 1-1 5.5 2 4-2.5-1.5q-2.2-.7-1.5 1.5L27 87l3.5-1 1.5 3.5-1.5 2.5q-1.2-2.2-6-1l-4 1-6-3-4.5 2.5-1 3Q11 99 19.5 97l5-3 .5 3 3-.5-1-2.5q3.8-1 5 1.5l-2 .5q-1.2 3 2.5 2l5-3 5.5 1q-1.1 2.7 1.5 2l1 1h10l3.5-2.5q-.5 3 6.5 1.5h2l5.5-2.5q-2.2-1.2-1-6l1-3-2-4 3-.5 1 2.5v2l-1 6 1 3q1.1 3.3-1.5 2.5l-3 2h-56l-5-1L7 96.5v-5l2-.5v-3.5l-1-7 2.5-3.5q2.3.8 1.5-1.5l.5-2.5Z" opacity=".753"/><path fill="#D3D5D5" stroke="#D3D5D5" d="M16.5 77q2.3-.7 1.5 1.5L16.5 77ZM41.5 86q5.4-1.9 4.5 1.5L42.5 89 40 87.5l1.5-1.5ZM51.5 90l3.5 1 1 2.5-2.5.5-2-4ZM35.5 92l2.5.5-2.5.5v-1ZM49 95q3-1 2 2-3 1-2-2Z" opacity=".753"/><path fill="#605E5D" stroke="#605E5D" d="M53.5 3Q59 2 60 5.5l.5 1.5 5-4 16 5 2-1v2l2-1 3.5 3.5v5q2.6 1.4 2 6L86.5 28q-2.9 2.6-9 2Q70 28.6 66 23.5L60.5 12l-8 12-9 4h-5L29 23q-.2-9.5 4.5-15L37 6.5l-2-1 1.5-.5 5 1 12-3ZM56 4 36 9l-5 7q-1 5 2 8l7 3 7-1 4-2q5-4 8-11 1-8-3-9Zm10 1-4 4v5l4 8q4 5 12 7 5 1 8-2l3-4q1-7-2-9l-4-4-17-5ZM49.5 9l2 3-2-3Z" opacity=".969"/><path fill="#605E5D" stroke="#605E5D" d="m41 10 4 1q.8 3.8-2.5 5l-2-1-1 2-.5-2.5 2-4.5ZM70.5 11l.5 2q3-1.2 2 2.5L70.5 18 68 16.5l-.5 1.5-.5-1.5 3.5-5.5ZM51.5 19l-1 2 1-2ZM68.5 20l2 3-2-3ZM73.5 23l2.5.5-2.5.5v-1ZM39.5 44l12 6 8.5 1 2 7 3-1.5.5-1.5.5 4.5-1.5-.5-4.5-1.5 1-2-2-3.5h-3.5l-7 4-8.5-2.5 6-.5q1.7-4.1-2.5-3L40 47.5l-.5-3.5Zm9.5 8-2 2h3l-1-2ZM66.5 47l1 2 1.5-.5-3 1.5.5-3ZM26.5 49l3.5 1 1 2.5v10l1 5.5q3 1.3 2-2.5l-1-5h1l1 8.5-3.5 1-7-2-3 2-.5-5.5 1-3-1-2L26.5 49ZM33.5 50l-.5 1.5 1 2-2-1 1.5-2.5ZM69.5 54q2.6-.8 1.5 2.5l1 4.5h3v-6.5h1q1.5 6-1.5 7.5l-9.5-.5 5-2-.5-5.5Z" opacity=".969"/><path fill="#605E5D" stroke="#605E5D" d="m33.5 55-.5 1.5 1 2-2-1 1.5-2.5ZM37.5 64l2 5 2.5 1.5q-.7 3.8 1.5 4.5 2.3-.7 1.5 1.5l1 2-4.5 4.5h-2L34 80.5l5.5-3.5h3l2 1-1-2q-2.2.8-1.5-1.5L38.5 69q-2.9.4-1-5ZM72.5 67l.5 9.5-1.5-.5-5-1-3.5 2.5q1.4-4.1 7-4l-3-1 5-2v-2l.5-1.5ZM49.5 73l1 2-1-2Z" opacity=".969"/><path fill="#605E5D" stroke="#605E5D" d="m32.5 75 2 1 2-1-.5 1.5q.7 3-3 1.5l-.5-3ZM48.5 79l1 2-2.5-.5 1.5-1.5ZM61.5 82l-1 2 1-2ZM36.5 86l2.5.5-2.5.5v-1Z" opacity=".969"/><path fill="#161514" stroke="#161514" d="m45.5 9 5.5 2.5 1 6-1 2.5q-2.1 1.6-7.5 1L41 17.5l2.5-.5q3.3 1.1 2.5-1.5l1-3L45.5 9ZM72.5 11q6.5-1 7.5 3.5 1.3 7.3-3.5 8.5-6.5 1-7.5-3.5 4.7.2 6-3L74 12l-1.5-1ZM60.5 14l1.5 3.5-1.5-.5q-2.2.8-1.5-1.5l1.5-1.5ZM63 26q5.3 0 7.5 4L83 31.5 78.5 33l-2-1-3 1-2.5-1q1.1 2.7-1.5 2l-6 5-3.5-1 .5-4 4 1q2.8-1.2.5-2.5 1-3.7-2-2.5v-4ZM48.5 27l3.5.5-2 4 1.5-.5 1.5.5-2 3.5h-3.5L44 33q1.4-3.7-4.5-2L36 29.5l2.5-.5 5 1 5-3ZM48.5 57l1.5.5-4 6L44.5 75 43 71.5l2-10 3.5-4.5ZM49 75q4.7 3.6 13.5 4l1.5-.5-3 4.5h-5.5L49 80v-5ZM34.5 82l5.5 2.5-3.5 1.5q-3.6-1.1-2-4Z" opacity=".969"/></svg>
