<svg xmlns="http://www.w3.org/2000/svg" viewBox="-64 0 512 512"><path fill="#eff6fe" d="M336.336 0H111.402c-3.98 0-7.793 1.582-10.605 4.395L4.395 100.793A15.003 15.003 0 0 0 0 111.398v353.47C0 490.854 21.145 512 47.133 512h289.203c25.914 0 47.133-20.953 47.133-47.133V47.133C383.469 21.219 362.516 0 336.336 0zm0 0"/><path fill="#d9e4ef" d="M383.465 47.129V464.87c0 26.18-21.211 47.129-47.13 47.129h-144.6V0h144.6c26.18 0 47.13 21.219 47.13 47.129zM95.336 112.469c9.445 0 17.133-7.688 17.133-17.133V0h-1.07a15.003 15.003 0 0 0-10.606 4.395L4.395 100.793A15.003 15.003 0 0 0 0 111.398v1.07zm0 0"/><path fill="#F28F27" d="M256 385.602H127.469c-8.285 0-15 6.714-15 15 0 8.28 6.715 15 15 15H256c8.285 0 15-6.72 15-15 0-8.286-6.715-15-15-15zm0 0"/><path fill="#4D7AA9" d="M181.129 346.938a14.948 14.948 0 0 0 10.605 4.394c3.836 0 7.676-1.465 10.606-4.395l64.265-64.265c5.86-5.856 5.86-15.356 0-21.211-5.855-5.86-15.351-5.86-21.21 0l-38.66 38.66V191.734c0-8.285-6.715-15-15-15s-15 6.715-15 15v108.387l-38.66-38.66c-5.856-5.86-15.356-5.86-21.216 0-5.855 5.855-5.855 15.355 0 21.21zm0 0"/></svg>
