<svg viewBox="0 0 512 512" xmlns="http://www.w3.org/2000/svg"><path fill="#455a64" fill-rule="evenodd" d="M240 256.605c-19.735 3.591-33.181 8.273-46.5 16.192-57.454 34.162-77.276 109.495-43.865 166.703 36.437 62.387 116.366 80.434 176.159 39.774 10.702-7.277 17.972-14.507 18.748-18.646 1.659-8.844-8.097-16.529-15.858-12.492-1.201.625-4.434 2.998-7.184 5.274-19.632 16.243-37.019 23.092-61.5 24.223-10.501.486-14.178.231-22.992-1.596-32.089-6.648-57.064-26.092-71.074-55.331-6.485-13.534-9.178-25.749-9.194-41.706-.016-15.957 1.73-25.371 7.153-38.58 11.546-28.124 36.901-50.431 66.607-58.6 6.829-1.877 10.561-2.199 25.5-2.199 20.011 0 26.702 1.331 41.475 8.254 24.188 11.335 41.165 29.245 51.118 53.927 5.915 14.668 8.528 34.122 6.512 48.476-2.041 14.533-6.816 19.914-18.241 20.56-16.771.947-23.2-7.302-24.829-31.86-1.32-19.906-6.544-31.843-18.863-43.105-18.381-16.803-47.282-19.379-67.744-6.038-17.094 11.146-26.445 28.246-26.416 48.309.022 15.641 5.23 28.075 16.517 39.436 11.295 11.369 23.563 16.387 40.116 16.408 14.399.019 25.055-3.931 37.141-13.768l5.286-4.302 5.042 5.517c3.302 3.612 7.326 6.641 11.656 8.773 5.872 2.89 7.75 3.298 16.732 3.63 25.771.954 39.948-9.965 45.756-35.242 1.559-6.782 1.446-31.213-.187-40.596-7.029-40.386-35.007-76.247-71.571-91.735-18.235-7.724-26.052-9.369-46.5-9.782-9.075-.183-17.625-.128-19 .122m10.732 89.472c-10.49 1.678-19.961 8.96-24.61 18.923-3.661 7.847-3.653 19.186.019 27 3.339 7.105 8.854 12.543 16.359 16.131 4.956 2.368 7.305 2.867 13.5 2.867s8.544-.499 13.5-2.867c7.505-3.588 13.02-9.026 16.359-16.131 3.476-7.396 3.64-19.108.369-26.332-6.376-14.082-20.658-21.964-35.496-19.591"/><path fill="#ffa000" fill-rule="evenodd" d="M106.625 260.875 15.754 351.75l5.373 4.012c6.382 4.766 11.414 7.381 18.873 9.805 4.708 1.53 10.273 1.846 38.657 2.192 37.733.459 33.66 1.542 34.828-9.259 4.937-45.63 38.394-91.083 81.62-110.884 65.999-30.233 142.898-7.788 182.362 53.226 11.551 17.858 17.803 35.849 22.064 63.489l.59 3.832 33.19-.404c28.414-.346 33.98-.661 38.689-2.192 7.459-2.424 12.491-5.039 18.873-9.805l5.373-4.012-90.871-90.875C355.396 210.894 314.228 170 313.89 170c-.337 0-7.763 5.197-16.502 11.549-8.738 6.351-18.588 12.865-21.888 14.474-12.116 5.907-26.884 5.907-39 0-3.3-1.609-13.15-8.123-21.888-14.474C205.873 175.197 198.447 170 198.11 170c-.338 0-41.506 40.894-91.485 90.875"/><path fill="#ffc107" fill-rule="evenodd" d="M407.787 101.777 314.075 169.5l90.71 90.75c49.891 49.913 91.038 90.75 91.437 90.75 1.919 0 10.585-14.398 12.714-21.122 1.284-4.058 2.724-8.159 3.199-9.114 1.158-2.325 1.132-265.047-.025-264.332-.49.303-1.203-1.114-1.585-3.149-.749-3.994-5.435-14.706-7.657-17.506-1.246-1.568-9.744 4.331-95.081 66M5.317 42.69 1.5 50.5l-.264 137.19-.264 137.191 2.517 6.687C5.825 337.773 14.206 351 15.803 351c.385 0 41.52-40.837 91.409-90.75l90.709-90.75-92.98-67C53.803 65.65 11.326 35.36 10.548 35.19c-.905-.199-2.791 2.505-5.231 7.5"/><path fill="#ffc107" fill-rule="evenodd" d="M407.787 101.777 314.075 169.5l90.71 90.75c49.891 49.913 91.038 90.75 91.437 90.75 1.919 0 10.585-14.398 12.714-21.122 1.284-4.058 2.724-8.159 3.199-9.114 1.158-2.325 1.132-265.047-.025-264.332-.49.303-1.203-1.114-1.585-3.149-.749-3.994-5.435-14.706-7.657-17.506-1.246-1.568-9.744 4.331-95.081 66M5.317 42.69 1.5 50.5l-.264 137.19-.264 137.191 2.517 6.687C5.825 337.773 14.206 351 15.803 351c.385 0 41.52-40.837 91.409-90.75l90.709-90.75-92.98-67C53.803 65.65 11.326 35.36 10.548 35.19c-.905-.199-2.791 2.505-5.231 7.5"/><path fill="#ffd54f" fill-rule="evenodd" d="M41.634 12.586c-3.226.781-8.614 2.881-11.973 4.667-6.768 3.598-18.913 14.342-18.454 16.326.161.697 21.668 16.672 47.793 35.5a500633.2 500633.2 0 0 1 106.5 76.779c70.634 50.938 68.433 49.435 76.218 52.052 11.395 3.83 27.83 2.205 37.138-3.672C285.62 189.967 497.077 37.167 499.5 34.799c1.994-1.948 1.981-1.972-4.849-8.362-3.767-3.525-9.617-7.756-13-9.401-13.281-6.461 2.566-6.044-226.111-5.953-176.076.071-208.941.302-213.906 1.503"/></svg>
