<svg viewBox="0 0 640 480" xmlns="http://www.w3.org/2000/svg"><path fill="#022169" stroke="#022169" d="M75.5 0H241v122.5l-2.5-1.5L75.5 1V0ZM401 0l161 .5L401.5 120 401 0ZM639.5 62l.5 98-131-.5L639.5 62ZM.5 64 129 159.5 0 160l.5-96ZM0 320l134 .5L.5 420 0 320ZM507.5 320H640v98.5l-2.5-1.5-129-95-1-2ZM240.5 360l.5 120-160-.5L240.5 360ZM401 362l159 117.5-159 .5V362Z"/><path fill="#FEFEFE" stroke="#FEFEFE" d="M1.5 0h73l2 1 164 122L241 0h31.5l.5.5V193H.5l-.5-.5V160l129-.5-129-96L.5 42l157 118h59v-1L3.5 3l-2-3ZM369 0h31.5l.5.5v119l3.5-2.5 156-116 2-1h26l-2 3L401 141.5V160h31.5l207-157 .5 58.5-131 98 131 .5v32.5l-.5.5H369V0ZM0 289h273v191h-31.5l-.5-.5v-119l-3.5 2.5-155 116-2 1h-25l2-3L241 339.5V320h-26.5L.5 480 0 420.5l134-100L0 320v-31ZM369 289h270.5l.5.5V320l-133 .5 133 99-.5 20.5-162-120h-54l1 2L639 479.5l-78.5.5L401 362v117.5l-.5.5H369V289Z"/><path fill="#C8102E" stroke="#C8102E" d="M.5 0 217 159.5l-59.5.5L0 41.5.5 0Z"/><path fill="#C8102E" stroke="#C8102E" d="M273 0h96v193h271v96H369v191h-96V289H0v-96h273V0Z"/><path fill="#C8102E" stroke="#C8102E" d="M590.5 0h49l.5 2.5L432.5 160H401v-18.5l3.5-3.5 186-138ZM214.5 320H241v19.5L55.5 479l-2 1h-52l2-3 211-157ZM423.5 320h54L640 440.5l-.5 39.5-211-155-5-5Z"/></svg>
