<svg viewBox="0 0 512 512" xmlns="http://www.w3.org/2000/svg"><path fill="#4e79a7" fill-rule="evenodd" d="M276.667 276.667c-.367.366-.681 19.604-.699 42.75-.025 33.226-.309 42.448-1.349 43.817-.724.954-1.565 1.487-1.868 1.184-.303-.303-2.265 1.162-4.359 3.257-2.095 2.095-3.458 3.137-3.028 2.317.429-.821-.426-.142-1.901 1.508-1.476 1.65-2.374 2.325-1.997 1.5.378-.825-.192-.507-1.266.707-1.073 1.215-2.188 1.972-2.476 1.684-.288-.288-2.238 1.189-4.332 3.284-2.095 2.095-3.458 3.137-3.028 2.317.429-.821-.426-.142-1.901 1.508-1.476 1.65-2.374 2.325-1.997 1.5.378-.825-.299-.375-1.503 1-1.203 1.375-2.475 2.445-2.826 2.377-3.178-.611-3.521 3.753-.516 6.567 1.406 1.318 1.546 1.326.91.056-.413-.825.456-.15 1.932 1.5 1.475 1.65 2.375 2.325 2 1.5-.376-.825.524-.15 2 1.5 1.475 1.65 2.385 2.325 2.023 1.5-.363-.825.269-.375 1.405 1 1.135 1.375 2.075 2.113 2.087 1.639.012-.473.956.202 2.098 1.5 1.142 1.299 1.768 1.686 1.39.861-.377-.825.521-.15 1.997 1.5 1.475 1.65 2.375 2.325 2 1.5-.376-.825.524-.15 2 1.5 1.475 1.65 2.385 2.325 2.023 1.5-.363-.825.269-.375 1.405 1 1.135 1.375 2.075 2.113 2.087 1.639.012-.473.956.202 2.098 1.5 1.142 1.299 1.778 1.686 1.413.861-.364-.825.264-.375 1.396 1 1.995 2.424 2.066 3.79 2.336 45l.279 42.5H383c98.598 0 106.732-.127 109.623-1.71 1.718-.941 3.478-1.391 3.911-1 .432.39.492.195.132-.435s-.017-1.39.762-1.689c.779-.299 2.688-2.708 4.244-5.355l2.828-4.811v-213l-36.906-.262c-32.366-.231-37.206-.067-39.337 1.329-1.337.876-2.186 1.838-1.886 2.137.299.299-.449 1.423-1.664 2.496-1.214 1.074-1.532 1.644-.707 1.266.825-.377.15.521-1.5 1.997-1.65 1.475-2.329 2.33-1.508 1.901.82-.43-.222.933-2.317 3.028-2.095 2.094-3.572 4.044-3.284 4.332.288.288-.469 1.403-1.684 2.476-1.214 1.074-1.532 1.644-.707 1.266.825-.377.15.521-1.5 1.997-1.65 1.475-2.325 2.375-1.5 2 .825-.376.15.524-1.5 2-1.65 1.475-2.325 2.385-1.5 2.023.825-.363.375.269-1 1.405-1.375 1.135-2.113 2.075-1.639 2.087.473.012-.202.956-1.5 2.098-1.299 1.142-1.686 1.768-.861 1.39.825-.377.15.521-1.5 1.997-1.65 1.475-2.325 2.375-1.5 2 .825-.376.15.524-1.5 2-1.65 1.475-2.325 2.385-1.5 2.023.825-.363.375.269-1 1.405-1.375 1.135-2.05 2.088-1.5 2.117.55.029.203.517-.77 1.083-1.913 1.114-5.835.337-5.46-1.081.127-.478-.67-1.609-1.77-2.514-1.1-.904-1.325-1.353-.5-.998.825.356.15-.56-1.5-2.035-1.65-1.476-2.325-2.376-1.5-2 .825.375.15-.525-1.5-2-1.65-1.476-2.325-2.374-1.5-1.997.825.378.507-.192-.707-1.266-1.215-1.073-1.972-2.188-1.684-2.476.288-.288-1.189-2.238-3.284-4.332-2.095-2.095-3.137-3.458-2.317-3.028.821.429.142-.426-1.508-1.901-1.65-1.476-2.325-2.374-1.5-1.997.825.378.507-.192-.707-1.266-1.215-1.073-1.972-2.188-1.684-2.476.288-.288-1.189-2.238-3.284-4.332-2.095-2.095-3.137-3.458-2.317-3.028.821.429.142-.426-1.508-1.901-1.65-1.476-2.325-2.374-1.5-1.997.825.378.438-.248-.861-1.39-1.298-1.142-1.973-2.091-1.5-2.109.474-.019-.201-.919-1.5-2-2.253-1.877-4.035-1.967-39.083-1.967-20.198 0-37.023.3-37.389.667"/><path fill="#76b7b2" fill-rule="evenodd" d="m107.466 256.974-13.903 19.005-43.032.261-43.031.26v214l3.038 4.5c1.698 2.516 5.004 5.602 7.5 7l4.462 2.5h213l.232-37.5.231-37.5-22.731-16.604c-12.503-9.132-24.414-17.682-26.47-19-2.055-1.318-3.737-2.846-3.737-3.396 0-.55 1.682-2.078 3.737-3.396 2.056-1.318 13.967-9.868 26.47-19l22.731-16.604-.231-37.5-.232-37.5-43.155-.5-43.154-.5-13.172-18c-7.244-9.9-13.504-18.344-13.91-18.765-.407-.421-6.996 7.787-14.643 18.239"/><path fill="#f28e2b" fill-rule="evenodd" d="M276.667 7.667C276.3 8.033 276 25.054 276 45.49v37.157l26.521 19.425c23.665 17.333 26.33 19.564 24.75 20.719-.974.712-12.914 9.461-26.533 19.441l-24.762 18.145.262 37.562.262 37.561 43 .315 43 .315 13.524 18.601c7.438 10.23 13.952 18.6 14.476 18.6.524 0 7.038-8.37 14.476-18.6L418.5 236.13l43-.315 43-.315.255-102.973c.14-56.635-.137-105.01-.616-107.5-1.143-5.948-1.537-7.425-2.139-8.027-.275-.275-.98-1.37-1.567-2.433-.587-1.063-1.937-2.413-3-3-1.063-.587-2.158-1.292-2.433-1.567-.57-.57-1.86-.929-7.5-2.09-4.745-.976-209.864-1.213-210.833-.243"/><path fill="#e15759" fill-rule="evenodd" d="M24 7.934C16.947 9.362 12.876 12.441 9.371 19 7.577 22.356 7.5 26.87 7.5 129v106.5h74.82l8.09-11.205a32819.84 32819.84 0 0 0 18.961-26.3c6.812-9.458 11.424-14.983 12.352-14.795.814.165 9.897 11.775 20.184 25.8l18.704 25.5H234.5l.261-42.156.261-42.156 3.342-2.844c1.838-1.564 10.396-8.007 19.018-14.318l15.674-11.475-2.278-1.809c-1.253-.994-7.228-5.388-13.278-9.764-6.05-4.376-13.25-9.667-16-11.758l-5-3.803-.5-43.458-.5-43.459-104-.137c-57.2-.076-105.575.181-107.5.571"/></svg>
