<svg
  xmlns="http://www.w3.org/2000/svg"
  xml:space="preserve"
  x="0px"
  y="0px"
  viewBox="0 0 512 512"
  style="enable-background:new 0 0 512 512;">
  <g>
    <path
      style="fill:#ECF0F1;"
      d="M373.485,512H147.19c-14.188,0-25.695-11.507-25.695-25.704V34.382c0-14.197,11.507-25.704,25.695-25.704h226.295c14.197,0,25.704,11.507,25.704,25.704v451.914C399.189,500.493,387.682,512,373.485,512"/>
    <polygon
      style="fill:#38454F;"
      points="121.491,442.576 399.186,442.576 399.186,60.746 121.491,60.746"/>
    <path
      style="fill:#546A79;"
      d="M295.05,43.39h-43.39c-4.799,0-8.678-3.879-8.678-8.678s3.879-8.678,8.678-8.678h43.39c4.799,0,8.678,3.879,8.678,8.678S299.849,43.39,295.05,43.39"/>
    <path
      style="fill:#546A79;"
      d="M225.627,43.39h-8.678c-4.799,0-8.678-3.879-8.678-8.678s3.879-8.678,8.678-8.678h8.678c4.799,0,8.678,3.879,8.678,8.678S230.426,43.39,225.627,43.39"/>
    <path
      style="fill:#BDC3C7;"
      d="M112.813,104.136c-4.799,0-8.678-3.879-8.678-8.678V86.78c0-4.799,3.879-8.678,8.678-8.678s8.678,3.879,8.678,8.678v8.678C121.491,100.257,117.612,104.136,112.813,104.136"/>
    <path
      style="fill:#BDC3C7;"
      d="M112.813,138.847c-4.799,0-8.678-3.879-8.678-8.678v-8.678c0-4.799,3.879-8.678,8.678-8.678s8.678,3.879,8.678,8.678v8.678C121.491,134.968,117.612,138.847,112.813,138.847"/>
    <path
      style="fill:#BDC3C7;"
      d="M112.813,173.559c-4.799,0-8.678-3.879-8.678-8.678v-8.678c0-4.799,3.879-8.678,8.678-8.678s8.678,3.879,8.678,8.678v8.678C121.491,169.68,117.612,173.559,112.813,173.559"/>
    <path
      style="fill:#BDC3C7;"
      d="M286.372,477.288c0,14.379-11.655,26.034-26.034,26.034c-14.379,0-26.034-11.654-26.034-26.034c0-14.379,11.655-26.034,26.034-26.034C274.718,451.254,286.372,462.909,286.372,477.288"/>
  </g>
  <g>
    <path
      style="fill:#77B8B4;"
      d="M208.271,312.407h-34.712c-4.799,0-8.678-3.653-8.678-8.166v-81.677c0-4.513,3.879-8.166,8.678-8.166h34.712c4.799,0,8.678,3.653,8.678,8.166v81.677C216.949,308.753,213.07,312.407,208.271,312.407"/>
    <path
      style="fill:#E25659;"
      d="M277.694,312.407h-34.712c-4.799,0-8.678-3.653-8.678-8.166v-98.009c0-4.513,3.879-8.175,8.678-8.175h34.712c4.799,0,8.678,3.662,8.678,8.175v98.009C286.372,308.753,282.493,312.407,277.694,312.407"/>
    <path
      style="fill:#4D7AA9;"
      d="M347.118,312.407h-34.712c-4.799,0-8.678-3.653-8.678-8.166V181.725c0-4.513,3.879-8.166,8.678-8.166h34.712c4.799,0,8.678,3.653,8.678,8.166v122.516C355.796,308.753,351.917,312.407,347.118,312.407"/>
    <path
      style="fill:#556080;"
      d="M364.474,321.085H156.203c-4.799,0-8.678-3.879-8.678-8.678c0-4.799,3.879-8.678,8.678-8.678h208.271c4.799,0,8.678,3.879,8.678,8.678C373.152,317.206,369.273,321.085,364.474,321.085"/>
  </g>
</svg>
