<svg xmlns="http://www.w3.org/2000/svg" xml:space="preserve" style="enable-background:new 0 0 512 512" viewBox="0 0 512 512"><path d="M373.485 512H147.19c-14.188 0-25.695-11.507-25.695-25.704V34.382c0-14.197 11.507-25.704 25.695-25.704h226.295c14.197 0 25.704 11.507 25.704 25.704v451.914c0 14.197-11.507 25.704-25.704 25.704" style="fill:#ecf0f1"/><path d="M121.491 442.576h277.695V60.746H121.491z" style="fill:#38454f"/><path d="M295.05 43.39h-43.39c-4.799 0-8.678-3.879-8.678-8.678s3.879-8.678 8.678-8.678h43.39c4.799 0 8.678 3.879 8.678 8.678s-3.879 8.678-8.678 8.678M225.627 43.39h-8.678c-4.799 0-8.678-3.879-8.678-8.678s3.879-8.678 8.678-8.678h8.678c4.799 0 8.678 3.879 8.678 8.678s-3.879 8.678-8.678 8.678" style="fill:#546a79"/><path d="M112.813 104.136a8.67 8.67 0 0 1-8.678-8.678V86.78c0-4.799 3.879-8.678 8.678-8.678s8.678 3.879 8.678 8.678v8.678a8.67 8.67 0 0 1-8.678 8.678M112.813 138.847a8.67 8.67 0 0 1-8.678-8.678v-8.678c0-4.799 3.879-8.678 8.678-8.678s8.678 3.879 8.678 8.678v8.678a8.67 8.67 0 0 1-8.678 8.678M112.813 173.559a8.67 8.67 0 0 1-8.678-8.678v-8.678c0-4.799 3.879-8.678 8.678-8.678s8.678 3.879 8.678 8.678v8.678a8.67 8.67 0 0 1-8.678 8.678M286.372 477.288c0 14.379-11.655 26.034-26.034 26.034s-26.034-11.654-26.034-26.034c0-14.379 11.655-26.034 26.034-26.034 14.38 0 26.034 11.655 26.034 26.034" style="fill:#bdc3c7"/><path d="M208.271 312.407h-34.712c-4.799 0-8.678-3.653-8.678-8.166v-81.677c0-4.513 3.879-8.166 8.678-8.166h34.712c4.799 0 8.678 3.653 8.678 8.166v81.677c0 4.512-3.879 8.166-8.678 8.166" style="fill:#77b8b4"/><path d="M277.694 312.407h-34.712c-4.799 0-8.678-3.653-8.678-8.166v-98.009c0-4.513 3.879-8.175 8.678-8.175h34.712c4.799 0 8.678 3.662 8.678 8.175v98.009c0 4.512-3.879 8.166-8.678 8.166" style="fill:#e25659"/><path d="M347.118 312.407h-34.712c-4.799 0-8.678-3.653-8.678-8.166V181.725c0-4.513 3.879-8.166 8.678-8.166h34.712c4.799 0 8.678 3.653 8.678 8.166v122.516c0 4.512-3.879 8.166-8.678 8.166" style="fill:#4d7aa9"/><path d="M364.474 321.085H156.203a8.67 8.67 0 0 1-8.678-8.678 8.67 8.67 0 0 1 8.678-8.678h208.271a8.67 8.67 0 0 1 8.678 8.678 8.67 8.67 0 0 1-8.678 8.678" style="fill:#556080"/></svg>
