<svg xmlns="http://www.w3.org/2000/svg" xml:space="preserve" style="enable-background:new 0 0 512 512" viewBox="0 0 512 512"><path d="M59.733 264.533A8.536 8.536 0 0 1 51.2 256c-.077-82.176 49.015-156.416 124.655-188.527 4.335-1.843 9.353.171 11.196 4.506s-.171 9.353-4.506 11.196C113.203 112.606 68.198 180.668 68.267 256c0 4.71-3.823 8.533-8.534 8.533zM452.267 264.533a8.536 8.536 0 0 1-8.533-8.533c.068-75.332-44.937-143.394-114.278-172.826-4.335-1.843-6.349-6.861-4.506-11.196s6.861-6.349 11.196-4.506C411.785 99.584 460.877 173.824 460.8 256a8.536 8.536 0 0 1-8.533 8.533zM256 460.8a203.702 203.702 0 0 1-80.145-16.273c-4.335-1.843-6.349-6.861-4.506-11.196s6.861-6.349 11.196-4.506a189.272 189.272 0 0 0 146.91 0c4.335-1.843 9.353.171 11.196 4.506s-.171 9.353-4.506 11.196A203.702 203.702 0 0 1 256 460.8z" style="fill:#f28f27"/><path d="M196.267 477.867a8.525 8.525 0 0 1-7.578-4.582l-17.067-32.657c-2.185-4.173-.563-9.335 3.61-11.511a9.18 9.18 0 0 1 1.562-.631l34.133-10.01c4.523-1.323 9.267 1.271 10.59 5.794s-1.271 9.267-5.794 10.59l-24.158 7.083 12.262 23.441c2.185 4.181.563 9.335-3.61 11.511a8.515 8.515 0 0 1-3.95.972zM452.267 264.533a8.513 8.513 0 0 1-6.033-2.5l-25.6-25.6c-3.277-3.388-3.183-8.789.213-12.066 3.311-3.191 8.55-3.191 11.853 0l19.567 19.567 19.567-19.567c3.388-3.277 8.789-3.183 12.066.213 3.191 3.311 3.191 8.55 0 11.853l-25.6 25.6a8.513 8.513 0 0 1-6.033 2.5zM162.133 119.467c-1.28 0-2.534-.29-3.686-.853a8.535 8.535 0 0 1-3.994-11.383l13.303-27.767-26.223-11.947a8.539 8.539 0 0 1-3.78-11.46 8.542 8.542 0 0 1 10.863-4.053l34.133 15.59c4.284 1.971 6.153 7.04 4.181 11.324l-.051.102-17.067 35.61a8.538 8.538 0 0 1-7.679 4.837z" style="fill:#f28f27"/><circle cx="256" cy="51.2" r="42.667" style="fill:#ffd4b0"/><path d="M187.733 204.8v-51.2c0-18.85 15.283-34.133 34.133-34.133a76.33 76.33 0 0 0 68.267 0c18.85 0 34.133 15.283 34.133 34.133v51.2c0 9.429-7.637 17.067-17.067 17.067H204.8c-9.429 0-17.067-7.638-17.067-17.067z" style="fill:#e25659"/><circle cx="435.2" cy="332.8" r="42.667" style="fill:#ffd4b0"/><path d="M366.933 486.4v-51.2c0-18.85 15.283-34.133 34.133-34.133a76.33 76.33 0 0 0 68.267 0c18.85 0 34.133 15.283 34.133 34.133v51.2c0 9.429-7.637 17.067-17.067 17.067H384c-9.429 0-17.067-7.638-17.067-17.067z" style="fill:#4d7aa9"/><circle cx="76.8" cy="332.8" r="42.667" style="fill:#ffd4b0"/><path d="M8.533 486.4v-51.2c0-18.85 15.283-34.133 34.133-34.133a76.33 76.33 0 0 0 68.267 0c18.85 0 34.133 15.283 34.133 34.133v51.2c0 9.429-7.637 17.067-17.067 17.067H25.6c-9.429 0-17.067-7.638-17.067-17.067z" style="fill:#77b8b4"/><path d="M307.2 51.2C307.2 22.921 284.279 0 256 0c-28.279 0-51.2 22.921-51.2 51.2s22.921 51.2 51.2 51.2c28.262-.026 51.174-22.938 51.2-51.2zm-85.333 0c0-18.85 15.283-34.133 34.133-34.133S290.133 32.35 290.133 51.2 274.85 85.333 256 85.333 221.867 70.05 221.867 51.2zM179.2 153.6v51.2c0 14.14 11.46 25.6 25.6 25.6h102.4c14.14 0 25.6-11.46 25.6-25.6v-51.2c-.026-23.552-19.115-42.641-42.667-42.667h-2.014l-1.801.896a68.032 68.032 0 0 1-60.638 0l-1.801-.896h-2.014c-23.55.026-42.639 19.115-42.665 42.667zm17.067 0c0-13.431 10.385-24.576 23.782-25.532a85.402 85.402 0 0 0 71.902 0c13.397.956 23.782 12.1 23.782 25.532v51.2a8.536 8.536 0 0 1-8.533 8.533H204.8a8.536 8.536 0 0 1-8.533-8.533v-51.2zM435.2 281.6c-28.279 0-51.2 22.921-51.2 51.2s22.921 51.2 51.2 51.2c28.279 0 51.2-22.921 51.2-51.2-.026-28.262-22.938-51.174-51.2-51.2zm0 85.333c-18.85 0-34.133-15.283-34.133-34.133s15.283-34.133 34.133-34.133 34.133 15.283 34.133 34.133-15.283 34.133-34.133 34.133zM469.333 392.533h-2.014l-1.801.853a68.032 68.032 0 0 1-60.638 0l-1.801-.853h-2.014c-23.552.026-42.641 19.115-42.667 42.667v51.2c0 14.14 11.46 25.6 25.6 25.6h102.4c14.14 0 25.6-11.46 25.6-25.6v-51.2c-.024-23.552-19.113-42.641-42.665-42.667zm25.6 93.867a8.536 8.536 0 0 1-8.533 8.533H384a8.536 8.536 0 0 1-8.533-8.533v-51.2c0-13.431 10.385-24.576 23.782-25.532a85.402 85.402 0 0 0 71.902 0c13.397.956 23.782 12.1 23.782 25.532v51.2zM76.8 281.6c-28.279 0-51.2 22.921-51.2 51.2S48.521 384 76.8 384s51.2-22.921 51.2-51.2c-.026-28.262-22.938-51.174-51.2-51.2zm0 85.333c-18.85 0-34.133-15.283-34.133-34.133S57.95 298.667 76.8 298.667s34.133 15.283 34.133 34.133S95.65 366.933 76.8 366.933zM25.6 512H128c14.14 0 25.6-11.46 25.6-25.6v-51.2c-.026-23.552-19.115-42.641-42.667-42.667h-2.014l-1.801.853a68.032 68.032 0 0 1-60.638 0l-1.801-.853h-2.014C19.115 392.559.026 411.648 0 435.2v51.2C0 500.54 11.46 512 25.6 512zm-8.533-76.8c0-13.431 10.385-24.576 23.782-25.532a85.402 85.402 0 0 0 71.902 0c13.397.956 23.782 12.1 23.782 25.532v51.2a8.536 8.536 0 0 1-8.533 8.533H25.6a8.536 8.536 0 0 1-8.533-8.533v-51.2z"/></svg>
