<svg viewBox="0 0 512 512" xmlns="http://www.w3.org/2000/svg"><path fill="#77b8b4" fill-rule="evenodd" d="M17.633 2.683c1.173.999 2.636 2.8 3.25 4.001C21.697 8.275 22 74.224 22 249.434V490h240.566c175.21 0 241.159.303 242.75 1.117 1.201.614 3.002 2.077 4.001 3.25 1.817 2.133 1.817 2.133.72-.107-2.749-5.615 13.912-5.26-246.987-5.26H23V248.95c0-260.899.355-244.238-5.26-246.987-2.24-1.097-2.24-1.097-.107.72m338.734 123.089c-4.499 3.645-4.367-1.461-4.367 168.712 0 175.371-.253 166.705 4.945 169.486 3.712 1.987 74.161 1.305 76.688-.742 4.499-3.645 4.367 1.481 4.367-169.127 0-163.031 0-163.031-3.104-166.566L431.793 124l-36.647.022c-33.211.02-36.846.184-38.779 1.75"/><path fill="#f28f27" fill-rule="evenodd" d="M218.763 36.565C212.575 39.923 213 24.128 213 250.516c0 150.206.305 207.212 1.117 208.8 2.932 5.734 2.234 5.64 41.883 5.64s38.951.094 41.883-5.64c1.465-2.866 1.605-413.902.142-417.75-2.401-6.316-3.988-6.562-42.025-6.522-28.57.03-34.971.291-37.237 1.521M74.484 339.5c0 65.45.12 92.078.266 59.173.146-32.905.146-86.455 0-119s-.266-5.623-.266 59.827m85 0c0 65.45.12 92.078.266 59.173.146-32.905.146-86.455 0-119s-.266-5.623-.266 59.827"/><path fill="#e25659" fill-rule="evenodd" d="M79.775 215.539c-1.499.824-3.186 2.361-3.75 3.414-1.427 2.666-1.422 238.436.005 241.102C78.534 464.735 80.727 465 117 465c36.273 0 38.466-.265 40.97-4.945 2.595-4.847 1.257-239.679-1.382-242.749-2.93-3.407-70.985-4.972-76.813-1.767"/><path fill="#4d7aa9" fill-rule="evenodd" d="M4.503 3.25C-.008 7.142.046 4.016.08 257c.035 261.457-.237 248.342 5.243 252.406 2.828 2.097 477.506 4.061 494.597 2.047 12.069-1.423 15.69-15.071 5.396-20.336-1.591-.814-67.54-1.117-242.75-1.117H22V249.434c0-175.21-.303-241.159-1.117-242.75C17.852.757 9.438-1.007 4.503 3.25"/></svg>
