<svg viewBox="0 0 500 500" xmlns="http://www.w3.org/2000/svg"><path fill="#76b7b2" fill-rule="evenodd" d="M228.5.709C53.813 16.982-51.033 202.298 25.506 359.5 65.75 442.154 155.316 500 243.051 500H252V390.105l5.25-.303c2.887-.166-1.05-.342-8.75-.39-95.481-.599-162.216-95.855-130.379-186.1 19.315-54.748 71.446-92.089 129.379-92.671 7.7-.078 11.863-.278 9.25-.446l-4.75-.305V0l-9.75.168c-5.363.093-11.55.336-13.75.541"/><path fill="#f28e2b" fill-rule="evenodd" d="M339.083 16.389c.23.214 4.467 2.047 9.417 4.074 53.248 21.797 99.115 64.821 126.05 118.236 4.098 8.125 7.45 14.304 7.45 13.73 0-.574-2.884-6.867-6.408-13.986-22.924-46.301-61.997-85.905-109.041-110.521-12.071-6.317-29.896-13.801-27.468-11.533m36.474 168.518c-.308.499 1.048 4.662 3.014 9.25 37.826 88.274-22.166 187.776-117.821 195.419l-8.75.699V500h8.311c57.999 0 129.086-31.674 171.39-76.366 20.539-21.698 44.353-56.921 45.964-67.985.252-1.732 1.777-5.926 3.389-9.319 1.611-3.394 3.574-8.645 4.362-11.67.788-3.025 2.099-6.548 2.912-7.83.814-1.281 1.8-4.355 2.191-6.83.392-2.475.98-4.949 1.309-5.498.328-.549.687-2.755.797-4.903.111-2.148.677-4.849 1.259-6.002 1.588-3.146 4.002-21.053 5.315-39.42 1.705-23.848-1.543-57.766-7.366-76.927l-.988-3.25h-57.364c-33.257 0-57.599.381-57.924.907"/><path fill="#e15759" fill-rule="evenodd" d="M252 54.415v54.414l7.75.644c48.358 4.016 91.451 30.326 113.473 69.277l2.968 5.25h57.321c44.921 0 57.43.27 57.826 1.25 1.657 4.106.257-3.439-1.938-10.448C457.799 73.911 358.339.291 253.25.003 252.265.001 252 11.548 252 54.415"/></svg>
