<svg viewBox="0 0 512 512" xmlns="http://www.w3.org/2000/svg"><path fill="#77b8b4" fill-rule="evenodd" d="M22.248 250.25 22 490l239.75-.248 239.75-.248-239.248-.254-239.248-.254-.254-239.248L22.496 10.5l-.248 239.75m139.082-43.5c56.556.143 148.806.143 205 0 56.193-.143 9.92-.26-102.83-.26s-158.727.117-102.17.26m-.5 85c56.831.143 149.531.143 206 0 56.468-.143 9.97-.259-103.33-.259s-159.502.116-102.67.259M52.306 348.412c-2.806 2.413-2.806 2.413-3.094 37.703-.302 37.082-.068 39.472 4.148 42.425 3.483 2.439 329.254 2.133 332.273-.312 4.223-3.421 4.367-4.744 4.367-40.212 0-36.29-.264-38.482-4.945-40.986-4.866-2.605-329.682-1.255-332.749 1.382"/><path fill="#f28f27" fill-rule="evenodd" d="M116.827 67.75c32.08.146 84.28.146 116 0 31.72-.147 5.473-.267-58.327-.266-63.8 0-89.753.119-57.673.266m-1.154 85c31.995.146 84.645.146 117 0 32.355-.147 6.177-.266-58.173-.266s-90.822.119-58.827.266m-63.367 56.663c-4.421 3.803-4.421 75.371 0 79.174 4.899 4.214 418.546 3.715 422.771-.51 4.599-4.6 4.599-73.554 0-78.154-4.225-4.225-417.872-4.724-422.771-.51"/><path fill="#e25659" fill-rule="evenodd" d="M54.311 69.952c-8.122 4.952-8.122 75.144 0 80.096 4.014 2.448 234.841 3.096 239.689.673 9.176-4.585 9.29-76.417.128-81.155-5.237-2.708-235.349-2.338-239.817.386"/><path fill="#4d7aa9" fill-rule="evenodd" d="M3.946 4.556.5 8.111v495.856l3.767 3.766 3.766 3.767h495.856l3.555-3.446c4.041-3.916 4.711-8.361 1.908-12.64-3.8-5.8 13.811-5.414-247.302-5.414H22V249.95c0-261.113.386-243.502-5.414-247.302C12.307-.155 7.862.515 3.946 4.556"/></svg>
