<svg viewBox="0 0 512 512" xmlns="http://www.w3.org/2000/svg"><path fill="#4e79a7" fill-rule="evenodd" d="M5.763 1.565C-.448 4.935 0-14.932 0 257.05V505.2l3.4 3.4 3.4 3.4h247.132c266.826 0 251.64.304 255.437-5.117 3.48-4.968 1.424-12.965-4.053-15.766-1.591-.814-67.408-1.117-242.25-1.117H23V250.468c0-261.664.414-243.901-5.791-248.319C13.715-.339 9.654-.546 5.763 1.565m85.011 160.99-2.727 4.492 13.516 8.727a4288.687 4288.687 0 0 1 25.873 16.86l12.359 8.135 2.97-4.542 2.97-4.542-25.978-16.842c-14.288-9.264-26.041-16.829-26.118-16.811-.076.017-1.366 2.053-2.865 4.523M234 200.546c-17.875 1.267-34.625 2.338-37.223 2.379-4.724.075-4.724.075-4.5 6.163l.223 6.087 6-.576c3.3-.317 20.85-1.525 39-2.686 18.15-1.16 33.09-2.193 33.2-2.295 1.13-1.046-1.247-11.598-2.59-11.497-.885.066-16.235 1.157-34.11 2.425m85.681 16.818c-.849 1.296-2.303 3.115-3.231 4.043-.929.929-1.522 1.841-1.319 2.027.203.187 15.218 12.346 33.368 27.021 18.149 14.675 33.325 27.266 33.724 27.979.523.934-7.916 5.849-30.129 17.549-16.97 8.938-31.325 16.542-31.901 16.898-.7.432-.479 2.32.669 5.711l1.714 5.064 34.858-18.328c41.412-21.775 32.691-21.224 54.616-3.45l18.353 14.878 2.87-4.525c1.578-2.489 2.47-4.796 1.983-5.128-.488-.332-7.773-6.196-16.188-13.031-17.366-14.105-16.97-12.655-5.053-18.46 6.514-3.174 6.514-3.174 4.267-7.143-1.236-2.183-2.39-4.373-2.564-4.866-.174-.494-4.825 1.419-10.337 4.25-5.511 2.831-10.535 5.147-11.164 5.147-.63 0-15.461-11.587-32.959-25.75-17.497-14.162-33.663-27.21-35.924-28.995-4.11-3.246-4.11-3.246-5.653-.891m-128.842 74.901c-.914 2.879-1.589 5.236-1.5 5.238.089.001 17.261 5.787 38.161 12.857 20.9 7.07 38.675 13.046 39.5 13.28 1.071.303 1.975-1.087 3.161-4.858.914-2.905 1.589-5.282 1.5-5.282-.138 0-76.704-25.586-78.507-26.235-.36-.13-1.401 2.12-2.315 5M113 328.182l-29.5 29.682 3.907 3.702 3.906 3.702 29.34-29.475 29.339-29.475-3.746-3.909-3.746-3.909-29.5 29.682"/><path fill="#f28e2b" fill-rule="evenodd" d="M64.344 121.118c-21.978 3.945-30.449 29.819-14.865 45.403 23.808 23.808 60.183-8.297 39.833-35.157-5.508-7.271-16.474-11.771-24.968-10.246m225.359 55.263c-19.594 7.304-25.575 28.535-12.223 43.386 9.88 10.989 28.701 12.37 38.056 2.794 6.688-6.846 10.208-17.279 8.461-25.076-3.488-15.562-20.717-26.165-34.294-21.104m-135.478 10.145c-18.979 9.635-21.367 32.946-4.678 45.672 17.541 13.376 42.916.474 42.752-21.738-.141-19.077-21.363-32.417-38.074-23.934m294.714 114.791c-2.509.703-5.953 2.269-7.655 3.48-1.701 1.212-3.491 2.203-3.977 2.203-3.997 0-9.816 17.778-8.193 25.032 5.813 25.979 38.846 30.171 51.17 6.493 9.807-18.843-10.57-43.031-31.345-37.208"/><path fill="#e15759" fill-rule="evenodd" d="M432.385 229.617c-19.069 6.763-23.574 32.928-7.811 45.378 17.835 14.087 43.38 1.997 43.416-20.549.029-18.08-18.399-30.931-35.605-24.829M156 258.302c-4.954 1.554-14.282 11.192-15.789 16.314-7.778 26.438 21.921 46.514 42.611 28.804 22.14-18.951 1.333-53.95-26.822-45.118m128.5 45.051c-25.77 12.026-17.383 50.627 11 50.627 22.539 0 35.012-26.756 20.276-43.497-8.149-9.258-20.623-12.101-31.276-7.13m-227 53c-16.747 7.815-20.964 28.51-8.553 41.973 19.834 21.518 54.346-.085 44.059-27.579-5.221-13.955-21.931-20.729-35.506-14.394"/></svg>
