<svg viewBox="0 0 512 512" xmlns="http://www.w3.org/2000/svg"><path fill="#77b8b4" fill-rule="evenodd" d="M229.715 1.089C-66.693 32.415-75.799 464.506 219 509.55c30.257 4.623 100 .259 100-6.257 0-.718-14.153-57.912-31.451-127.099L256.097 250.4l17.79-123.291c11.112-77.005 18.24-123.57 18.988-124.032 3.783-2.338-45.247-3.881-63.16-1.988"/><path fill="#e25659" fill-rule="evenodd" d="M363.567 182.552c-57.712 36.527-105.363 66.844-105.889 67.37-.976.976 60.769 250.658 62.445 252.511 1.914 2.117 29.694-7.839 49.877-17.874C490.66 424.566 543.971 280.148 491.287 156c-6.445-15.188-20.265-40.127-22.127-39.93-.363.038-47.88 29.955-105.593 66.482"/><path fill="#f28f27" fill-rule="evenodd" d="M291.535 5.25C291.052 7.41 256 250.451 256 251.641c0 .319.788-.316 1.75-1.412 5.123-5.832 211.676-134.473 212.917-132.604 2.023 3.045 4.543 6 3.733 4.375C449.118 71.349 375.416 19.774 307.965 5.533c-14.798-3.124-15.791-3.141-16.43-.283"/></svg>
