<svg viewBox="0 0 500 500" xmlns="http://www.w3.org/2000/svg"><path fill="#e15759" fill-rule="evenodd" d="m225 178.157-42.5 26.128c-9.9 6.088-24.975 15.32-33.5 20.515-8.525 5.196-15.623 9.552-15.773 9.68-.423.361 49.328 135.855 50.46 137.427.315.437 40.256 6.401 107.813 16.1 23.1 3.316 43.238 6.282 44.75 6.591 2.75.561 2.75.561 2.75-72.92v-73.482l-43.581-42.598c-23.969-23.429-44.107-42.576-44.75-42.549-.643.027-12.194 6.825-25.669 15.108"/><path fill="#4e79a7" fill-rule="evenodd" d="M218.366 37.783A74847.87 74847.87 0 0 0 143.221 92a50592.993 50592.993 0 0 1-79.468 57.282l-50.505 36.312C2.328 193.448.153 195.422.888 196.812c.687 1.3 81.048 253.22 90.257 282.941l1.937 6.253 157.104-.253 157.105-.253 28.817-93c15.849-51.15 29.959-96.6 31.356-101 1.396-4.4 8.861-28.435 16.588-53.411 7.727-24.976 14.513-46.277 15.08-47.335 1.249-2.334 12.293 5.881-69.132-51.428a397557.89 397557.89 0 0 1-113.5-79.912c-39.854-28.076-61.086-42.878-64.102-44.688-.606-.363-15.92 10.012-34.032 23.057M213 70.282a162175.674 162175.674 0 0 0-51 36.72c-13.475 9.708-37.325 26.88-53 38.161-15.675 11.28-37.621 27.077-48.769 35.103-11.147 8.026-19.922 14.796-19.5 15.045.423.249 12.694 4.356 27.269 9.128 14.575 4.771 26.794 8.987 27.153 9.368.359.381-4.305 4.47-10.364 9.087l-11.017 8.393-20.585-6.611c-24.667-7.923-22.843-11.597-11.594 23.353A14431.192 14431.192 0 0 1 59.62 304.5c4.697 14.85 16.829 52.893 26.96 84.541 10.131 31.647 18.42 58.085 18.42 58.75 0 2.716 2.15.269 16.5-18.773 17.73-23.528 15.184-22.278 19.889-9.768 2.12 5.637 4.45 11.209 5.178 12.381 1.22 1.965.471 3.253-9.598 16.5L126.048 462.5l61.898.258c34.045.141 90.03.141 124.412 0l62.512-.258-10.534-14c-5.793-7.7-10.751-14.534-11.018-15.187-.438-1.076 6.498-21.376 8.57-25.077.663-1.184 4.447 3.259 16.238 19.066 8.456 11.336 15.628 20.631 15.938 20.655.556.042 13.144-39.822 33.617-106.457 5.745-18.7 16.986-55.068 24.98-80.819 17.037-54.876 17.654-49.337-4.599-41.258-22.059 8.008-18.891 8.12-32.611-1.149-10.743-7.259-11.3-7.797-9.193-8.888 1.233-.638 13.717-5.305 27.742-10.37 14.025-5.066 25.641-9.345 25.813-9.51.172-.164-7.253-5.678-16.5-12.253-15.872-11.284-26.251-18.597-103.313-72.796-17.325-12.185-41.4-29.122-53.5-37.638l-22-15.483-.5 32.273-.5 32.274-11.5-7.424-11.5-7.424-.5-24.912-.5-24.911-26.5 19.07"/><path fill="#f28e2b" fill-rule="evenodd" d="M234.5 105.149c-2.75 2.246-34.475 27.035-70.5 55.085-36.025 28.051-66.175 51.758-67 52.683-1.253 1.404-20.199 16.024-26.319 20.309-1.709 1.198-1.299 2.594 6.837 23.274A5377.256 5377.256 0 0 1 93.997 299c4.302 11.275 14.555 37.6 22.783 58.5 8.229 20.9 16.007 40.925 17.285 44.5 1.278 3.575 2.617 6.725 2.977 7 .359.275 2.552 5.45 4.873 11.5 2.322 6.05 4.662 11.45 5.201 12 .539.55 12.996 1.953 27.682 3.117 14.686 1.164 59.256 4.724 99.043 7.911 61.553 4.931 72.474 5.584 73.228 4.383.488-.776 2.076-4.786 3.529-8.911 4.143-11.759 10.911-29.782 14.27-38 4.16-10.178 33.59-86.86 42.6-111a5032.181 5032.181 0 0 1 15.516-40.872c8.277-21.473 8.56-22.928 4.516-23.153-.55-.031-6.4-3.839-13-8.463-32.565-22.814-170.541-114.909-173.883-116.062-.614-.212-3.367 1.452-6.117 3.699m-9.5 73.008-42.5 26.128c-9.9 6.088-24.975 15.32-33.5 20.515-8.525 5.196-15.623 9.552-15.773 9.68-.423.361 49.328 135.855 50.46 137.427.315.437 40.256 6.401 107.813 16.1 23.1 3.316 43.238 6.282 44.75 6.591 2.75.561 2.75.561 2.75-72.92v-73.482l-43.581-42.598c-23.969-23.429-44.107-42.576-44.75-42.549-.643.027-12.194 6.825-25.669 15.108M250 486l-157.5.509 157.191.246c103.981.162 157.4-.094 157.809-.755.34-.55.479-.89.309-.755-.17.135-71.184.475-157.809.755"/></svg>
